PathFileType	4	(X/Y/Z)	C:/Users/opensim2020/Desktop/walking_exp_matlab/subject01_walking09_straight_04.trc	
DataRate	CameraRate	NumFrames	NumMarkers	Units	OrigDataRate	OrigDataStartFrame	OrigNumFrames	
100.00	100.00	8	43	mm	100.00	3923	292	
Frame#	Time	LFHD			RFHD			LBHD			RBHD			C7			T10			CLAV			STRN			RBAK			LSHO			LUPA			LELB			LFRM			LWRA			LWRB			LFIN			RSHO			RUPA			RELB			RFRM			RWRA			RWRB			RFIN			LASI			RASI			LPSI			RPSI			LTHI			LKNE			LTIB			LANK			LHEE			LTOE			RTHI			RKNE			RTIB			RANK			RHEE			RTOE			*39			*40			*41			*42			
		X1	Y1	Z1	X2	Y2	Z2	X3	Y3	Z3	X4	Y4	Z4	X5	Y5	Z5	X6	Y6	Z6	X7	Y7	Z7	X8	Y8	Z8	X9	Y9	Z9	X10	Y10	Z10	X11	Y11	Z11	X12	Y12	Z12	X13	Y13	Z13	X14	Y14	Z14	X15	Y15	Z15	X16	Y16	Z16	X17	Y17	Z17	X18	Y18	Z18	X19	Y19	Z19	X20	Y20	Z20	X21	Y21	Z21	X22	Y22	Z22	X23	Y23	Z23	X24	Y24	Z24	X25	Y25	Z25	X26	Y26	Z26	X27	Y27	Z27	X28	Y28	Z28	X29	Y29	Z29	X30	Y30	Z30	X31	Y31	Z31	X32	Y32	Z32	X33	Y33	Z33	X34	Y34	Z34	X35	Y35	Z35	X36	Y36	Z36	X37	Y37	Z37	X38	Y38	Z38	X39	Y39	Z39	X40	Y40	Z40	X41	Y41	Z41	X42	Y42	Z42	X43	Y43	Z43	

37	0.360	1541.29810	899.72241	1671.70947	1429.45056	886.32465	1683.56262	1530.40771	1016.67285	1630.83704	1412.05994	1006.93024	1642.54297	1470.56433	1062.40759	1440.02612	1451.39270	1099.93811	1148.01306	1476.28479	919.52576	1372.04736	1478.01379	878.39923	1216.48950	1381.77271	1113.30066	1249.39893	1633.62073	990.54547	1395.92285	1715.79700	1008.31732	1210.76904	1719.95703	997.64447	1059.90063	1743.47595	936.81470	962.63727	1721.36536	837.06714	867.13300	1748.48779	888.22882	850.84509	1760.16162	824.19067	796.20355	1322.01746	971.64813	1408.05359	1212.05713	1027.57483	1211.49695	1207.23096	1029.93701	1086.84631	1173.57715	1003.51068	970.28253	1193.63745	926.59747	851.06689	1150.77112	967.23254	854.65765	1152.80420	931.15265	775.52173	1561.15942	937.49652	934.93280	1345.05835	927.46167	945.99115	1498.95508	1120.15894	952.88342	1353.54907	1110.61365	957.11438	1602.93311	969.48999	601.57227	1581.82117	977.45624	468.30634	1585.59644	1040.03662	288.24899	1531.18787	1084.30505	75.44141	1476.97144	1129.32410	46.40557	1541.91431	938.11572	38.17995	1272.37341	893.87848	625.31458	1294.94739	849.32770	471.91043	1291.44116	927.83490	313.35382	1338.03345	984.17792	114.19477	1393.92822	1030.73621	78.91261	1324.27063	855.15686	57.74063	1453.82251	896.76642	1716.26306	-3101.89551	1973.13513	1023.34863	-3140.57935	2012.48389	1022.09729			 
38	0.370	1540.98743	893.13000	1671.59985	1429.12634	879.81085	1683.26196	1530.29578	1010.08423	1630.76331	1411.78345	1000.31726	1642.21643	1471.11487	1056.07764	1440.07117	1452.08411	1094.02661	1148.02393	1476.33887	913.16107	1371.71191	1478.43604	872.34747	1216.17017	1382.35657	1107.37708	1249.33350	1633.88660	983.74213	1396.05505	1716.54370	1000.96307	1211.12805	1720.96851	989.88263	1060.22144	1744.72485	928.42249	963.59094	1722.03650	827.81104	868.65955	1749.46765	878.78900	852.08032	1761.06665	814.37842	798.06415	1322.08118	965.45624	1407.69824	1212.69556	1022.19885	1211.03052	1207.92480	1025.02637	1086.43250	1174.31311	999.09418	969.72418	1194.38672	922.53748	850.27289	1151.51917	963.69214	854.24683	1153.61707	927.55902	774.83569	1561.90271	932.23389	934.45697	1345.70703	921.79968	945.86627	1499.28345	1114.75269	952.73376	1353.94043	1104.82422	957.01514	1603.20630	966.22736	601.14972	1582.14746	975.25525	467.87769	1585.68628	1038.84668	288.10089	1531.13147	1084.12732	75.47355	1476.87390	1129.34460	46.60590	1541.83411	938.08246	38.10165	1272.65466	888.23724	625.26019	1295.78357	842.59680	472.41205	1291.81018	915.10553	311.18353	1338.03967	961.70081	109.18022	1394.03271	1007.02576	72.31953	1324.54163	830.03113	58.64484	1453.49573	890.21252	1716.02930	-3101.90186	1973.09583	1023.38141	-3140.81860	2012.48950	1022.06628			 
39	0.380	1540.65588	886.51874	1671.41663	1428.57642	873.48248	1682.76111	1530.12744	1003.52985	1630.63892	1411.73975	994.07239	1641.93213	1471.34192	1049.63306	1439.91248	1452.65918	1088.04004	1147.92908	1476.50989	906.76862	1371.39478	1478.74988	866.24017	1215.70715	1382.96997	1101.30737	1249.19299	1634.09558	976.94214	1396.12402	1717.22144	993.60284	1211.42981	1721.93115	982.17194	1060.46423	1745.55994	919.98804	964.29401	1722.82715	818.53534	870.30505	1749.95496	869.39325	853.04022	1761.68994	804.43140	799.68188	1322.20239	959.28027	1407.18921	1213.20178	1016.91901	1210.56091	1208.43066	1020.05542	1085.98535	1174.97180	994.60156	969.11700	1195.07532	918.52844	849.33545	1152.11377	959.41840	853.28033	1154.22253	923.81842	773.83771	1562.61707	926.91699	933.92871	1346.24341	915.79224	945.47180	1499.47510	1109.22998	952.50256	1354.25537	1099.06494	956.86176	1603.39905	962.95575	600.62823	1582.39624	973.04980	467.34943	1585.82983	1037.59485	287.98907	1531.14063	1084.04370	75.73034	1476.72900	1129.26721	46.76204	1542.03833	938.21936	38.21605	1273.13684	882.90198	625.16248	1296.59705	836.15350	472.67279	1292.19653	902.16571	308.78540	1338.23657	938.53638	104.65498	1393.65869	981.86304	65.74472	1324.42920	805.16528	59.52495	1453.04382	883.62018	1715.72070	-3101.98120	1973.08826	1023.44635	-3140.72217	2012.52380	1022.04755			 
40	0.390	1540.19165	879.92932	1671.18738	1428.22791	866.84656	1682.36963	1529.86877	996.96448	1630.44312	1411.47290	987.58972	1641.51648	1471.53601	1043.22485	1439.68115	1453.15955	1082.02258	1147.78223	1476.48047	900.40186	1370.98950	1479.06384	859.98682	1215.29321	1383.45374	1095.26611	1248.97852	1634.15820	970.15649	1396.07996	1717.76819	986.24957	1211.61877	1722.72961	974.48712	1060.59534	1746.27161	911.55786	964.87732	1723.35156	809.40308	871.66785	1750.67212	860.09180	854.11731	1762.34436	794.70490	801.30103	1322.40784	953.04907	1406.50354	1213.70532	1011.49042	1209.99304	1209.04077	1014.99963	1085.42847	1175.68774	990.16541	968.54474	1195.51111	914.25122	848.52832	1152.78333	955.42371	852.56018	1154.91724	919.86090	772.93921	1563.26147	921.48053	933.35986	1346.91162	909.75604	945.32489	1499.64612	1103.73730	952.32965	1354.52075	1093.17017	956.71655	1603.61963	959.69287	600.14874	1582.62463	970.84448	466.84149	1585.96777	1036.31445	287.83704	1531.02893	1083.88013	75.79747	1476.63330	1129.18250	46.98472	1542.02356	938.19128	38.14783	1273.38928	877.86279	624.61548	1297.62036	829.95422	472.82126	1292.42188	889.17041	306.61621	1337.89307	916.03253	100.61639	1393.10583	957.65747	59.75682	1324.46997	780.73761	61.05822	1452.47876	877.08612	1715.33679	-3101.85205	1973.04431	1023.29425	-3140.73218	2012.55627	1022.09644			 
41	0.400	1539.61377	873.31525	1670.91125	1427.68347	860.25714	1681.95007	1529.49377	990.43646	1630.25208	1410.99170	981.10199	1641.14209	1471.57239	1036.80286	1439.45154	1453.47729	1075.93701	1147.53992	1476.45374	893.97809	1370.57898	1479.32776	853.70221	1214.84778	1383.91040	1089.14331	1248.64148	1634.18005	963.41724	1396.01343	1718.19397	978.96570	1211.77002	1723.45593	966.86743	1060.68945	1747.00854	903.19006	965.45508	1723.82629	800.35889	872.98871	1751.32605	850.79138	855.06232	1762.82520	785.00745	802.78064	1322.32446	946.75140	1405.92175	1214.17896	1006.03198	1209.37036	1209.59644	1009.92993	1084.84644	1176.30835	985.48016	967.77911	1196.08325	910.12225	847.54297	1153.38745	951.22870	851.68011	1155.37646	916.12439	771.93311	1563.93591	916.16797	932.87982	1347.43860	903.68744	944.98877	1499.70166	1098.10046	952.06464	1354.62598	1087.09534	956.46143	1603.93152	956.47357	599.77863	1582.99878	968.64746	466.40552	1586.12390	1035.01306	287.69437	1530.98401	1083.66736	75.84319	1476.53418	1129.09424	47.25807	1542.44482	938.52063	38.19365	1273.72107	872.82202	623.88141	1298.34937	823.99475	472.63422	1292.41907	876.19446	304.41898	1337.32446	893.72620	97.18987	1392.83215	933.54169	55.34272	1324.51892	756.73792	62.85704	1451.94373	870.56183	1714.96741	-3102.08496	1973.07788	1023.51648	-3140.50195	2012.53076	1021.97205			 
42	0.410	1539.04358	866.74902	1670.62622	1426.94348	853.87750	1681.44556	1529.04565	983.88269	1630.01733	1410.59741	974.69104	1640.68628	1471.53918	1030.37085	1439.10938	1453.72778	1069.74304	1147.25977	1476.40320	887.50848	1370.16663	1479.57117	847.37128	1214.45020	1384.26270	1082.97119	1248.21301	1634.07654	956.71399	1395.87048	1718.61133	971.66266	1211.89575	1724.19824	959.29822	1060.91125	1747.29944	894.87653	965.74487	1724.28943	791.37531	874.36316	1751.72583	841.61896	855.92371	1763.14246	775.40637	804.15607	1322.24915	940.56372	1405.19739	1214.43652	1000.64575	1208.71887	1210.12903	1004.75269	1084.13159	1176.75818	980.80835	967.03711	1196.51514	905.72125	846.63281	1154.21106	947.09814	850.98358	1155.97180	912.23218	771.10272	1564.47058	910.55664	932.24677	1347.88367	897.15784	944.61224	1499.71582	1092.36450	951.78723	1354.71497	1080.90259	956.21783	1603.80298	953.15723	599.08929	1583.33850	966.38916	465.91867	1586.31042	1033.67468	287.60944	1531.00098	1083.52856	76.05814	1476.53784	1129.04944	47.58477	1542.25549	938.29089	38.26612	1273.95288	868.29120	623.20367	1299.20911	818.31641	472.40976	1292.35889	863.03406	302.65173	1336.70496	871.69910	94.43259	1391.78479	910.16760	51.06214	1324.85876	733.09204	65.18181	1451.20740	864.03363	1714.48926	-3101.89429	1973.10388	1023.43622	-3140.74512	2012.44592	1022.12634			 
43	0.420	1538.38794	860.19586	1670.30859	1426.31873	847.29852	1680.91992	1528.57324	977.34290	1629.77637	1410.07544	968.27167	1640.22034	1471.44739	1023.90240	1438.73376	1453.84985	1063.53613	1146.88196	1476.22827	881.08435	1369.77917	1479.70447	841.04541	1213.97412	1384.57715	1076.74060	1247.69556	1633.96594	950.08270	1395.71265	1718.87366	964.42114	1211.93433	1724.65186	951.72821	1060.86389	1747.75281	886.66107	966.20447	1724.48462	782.52136	875.47345	1752.10425	832.58002	856.75177	1763.59814	766.03632	805.65228	1322.01685	934.23248	1404.51978	1214.75110	995.01025	1208.01196	1210.44019	999.56293	1083.51086	1177.10864	975.93250	966.20386	1196.99048	901.30365	845.50989	1154.39868	942.71698	849.87671	1156.43323	908.12256	770.00183	1564.98462	905.01764	931.70752	1348.48376	890.57379	944.30029	1499.71375	1086.48523	951.50726	1354.78711	1074.76416	956.07727	1604.18408	949.71387	598.82422	1583.66443	964.09595	465.40564	1586.54553	1032.33691	287.55081	1531.01636	1083.39612	76.29826	1476.51746	1129.03064	47.91657	1542.65955	938.60065	38.27845	1274.18628	863.81873	622.34833	1299.96716	812.75244	471.97992	1292.05994	850.19440	300.79077	1335.86157	850.05560	92.35717	1390.54895	887.32056	47.59699	1325.62598	710.25555	68.02831	1450.46863	857.49658	1714.00061	-3101.81592	1973.18713	1023.33978	-3140.76392	2012.52991	1022.07623			 
44	0.430	1537.61877	853.64478	1669.93787	1425.50244	840.89777	1680.30505	1527.96509	970.83215	1629.43750	1409.17371	961.57184	1639.69543	1471.22974	1017.42249	1438.27063	1453.78491	1057.33301	1146.49597	1475.76831	874.63812	1369.12134	1479.79773	834.67114	1213.48706	1384.69617	1070.42432	1247.07397	1633.69507	943.43958	1395.49890	1718.96838	957.26569	1211.91235	1725.02063	944.23413	1060.78357	1748.20471	878.50000	966.67865	1724.86719	773.71014	876.68207	1752.40369	823.63635	857.53223	1763.66833	756.58142	806.73029	1321.78882	927.96387	1403.75940	1214.91650	989.47601	1207.22205	1210.74646	994.25861	1082.79810	1177.61609	971.15411	965.43408	1197.12000	896.71771	844.57080	1154.82446	938.14960	848.87683	1156.96326	903.78766	768.88416	1565.41711	899.32654	931.11029	1348.94775	884.34674	943.67303	1499.68445	1080.51819	951.18182	1354.80237	1068.41870	955.84912	1604.37231	946.15057	598.39142	1583.96362	961.77228	465.00769	1586.73584	1031.00354	287.45700	1530.99438	1083.18115	76.55204	1476.43665	1128.98157	48.27655	1542.33289	938.20917	38.22742	1274.38635	859.54150	621.24231	1300.58215	807.19513	471.49384	1291.79004	837.81158	299.66434	1334.99084	828.85748	91.01956	1389.14465	865.20532	44.86186	1326.34985	688.01123	71.09683	1449.60181	850.96600	1713.51428	-3101.98633	1973.10303	1023.46661	-3140.56934	2012.51392	1022.03986			 
